<?xml version="1.0" encoding="utf-8"?>
<svg viewBox="0 0 24 24" xmlns="http://www.w3.org/2000/svg">
  <path fill-rule="evenodd" fill="#4872a3" d="M 15.68 0 C 22.4 0 24 1.6 24 8.32 L 24 15.68 C 24 22.4 22.4 24 15.68 24 L 8.32 24 C 1.6 24 0 22.4 0 15.68 L 0 8.32 C 0 1.6 1.6 0 8.32 0 L 15.68 0 Z M 6.5 7.5 L 4.75 7.5 C 4.25 7.5 4.15 7.74 4.15 7.99 C 4.15 8.46 4.74 10.76 6.91 13.8 C 8.074 15.661 10.06 16.851 12.25 17 C 13.36 17 13.5 16.75 13.5 16.32 L 13.5 14.75 C 13.5 14.25 13.61 14.15 13.96 14.15 C 14.31 14.15 14.66 14.28 15.7 15.28 C 16.89 16.47 17.08 17 17.75 17 L 19.5 17 C 20 17 20.25 16.75 20.11 16.26 C 19.737 15.497 19.237 14.804 18.63 14.21 C 18.22 13.72 17.63 13.21 17.42 12.95 C 17.21 12.69 17.24 12.46 17.42 12.17 C 18.347 10.924 19.138 9.583 19.78 8.17 C 19.89 7.8 19.78 7.53 19.25 7.53 L 17.5 7.53 C 17.167 7.512 16.861 7.709 16.74 8.02 C 16.198 9.31 15.474 10.515 14.59 11.6 C 14.18 12.01 13.99 12.14 13.77 12.14 C 13.55 12.14 13.5 12.01 13.5 11.64 L 13.5 8.14 C 13.5 7.7 13.37 7.5 13 7.5 L 10.25 7.5 C 10.016 7.489 9.816 7.666 9.8 7.9 C 9.8 8.32 10.44 8.42 10.5 9.61 L 10.5 12.18 C 10.5 12.75 10.4 12.85 10.18 12.85 C 9.58 12.85 8.18 10.67 7.28 8.18 C 7.12 7.7 7 7.5 6.5 7.5 Z"/>
</svg>