<svg xmlns="http://www.w3.org/2000/svg" viewBox="0 0 40 28">
    <defs>
        <style>.cls-1{fill:#e0e0d1;}.cls-2{opacity:0.2;}.cls-3{fill:#231f20;}.cls-4{fill:#fff;}
        </style>
    </defs>
    <g id="Слой_2" data-name="Слой 2">
        <g id="Слой_1-2" data-name="Слой 1">
            <g id="Layer_1" data-name="Layer 1">
                <path class="cls-1"
                    d="M40,24a4,4,0,0,1-4,4H4a4,4,0,0,1-4-4V4A4,4,0,0,1,4,0H36a4,4,0,0,1,4,4Z" />
                <g class="cls-2">
                    <path class="cls-3"
                        d="M23.5,12.2a4.68,4.68,0,0,0-7,0L1,25.2c-.2.2-.3.4-.5.6A4,4,0,0,0,3.9,28h32a3.87,3.87,0,0,0,3.4-2.2,2.65,2.65,0,0,0-.5-.6Z" />
                </g>
                <path class="cls-1"
                    d="M23.5,14a5,5,0,0,0-7,0L1,25.5.5,26a3.9,3.9,0,0,0,3.4,1.9h32A4,4,0,0,0,39.3,26c-.1-.2-.3-.3-.5-.5Z" />
                <g class="cls-2">
                    <path class="cls-3"
                        d="M.6,2.2A4,4,0,0,1,4,0H36a3.87,3.87,0,0,1,3.4,2.2,2.65,2.65,0,0,1-.5.6l-15.4,13a4.68,4.68,0,0,1-7,0Z" />
                </g>
                <path class="cls-4"
                    d="M16.5,14a5,5,0,0,0,7,0L39,2.5l.5-.5A3.9,3.9,0,0,0,36.1.1H4A4,4,0,0,0,.6,2c.1.2.3.3.5.5Z" />
            </g>
        </g>
    </g>
</svg>
